<svg xmlns="http://www.w3.org/2000/svg" viewBox="0 9.470000267028809 206.5399932861328 36.37999725341797" data-asc="0.9052734375"><g fill="#000000"><g fill="#000000" transform="translate(0, 0)"><path d="M11.79 45.26L11.79 13.70L0 13.70L0 9.47L28.37 9.47L28.37 13.70L16.53 13.70L16.53 45.26L11.79 45.26ZM30.76 45.26L30.76 19.34L34.72 19.34L34.72 23.27Q36.23 20.51 37.51 19.63Q38.79 18.75 40.33 18.75Q42.55 18.75 44.85 20.17L43.33 24.24Q41.72 23.29 40.11 23.29Q38.67 23.29 37.52 24.16Q36.38 25.02 35.89 26.56Q35.16 28.91 35.16 31.69L35.16 45.26L30.76 45.26ZM64.38 42.07Q61.94 44.14 59.68 45.00Q57.42 45.85 54.83 45.85Q50.56 45.85 48.27 43.76Q45.97 41.67 45.97 38.43Q45.97 36.52 46.84 34.95Q47.71 33.37 49.11 32.42Q50.51 31.47 52.27 30.98Q53.56 30.64 56.18 30.32Q61.50 29.69 64.01 28.81Q64.04 27.91 64.04 27.66Q64.04 24.98 62.79 23.88Q61.11 22.39 57.79 22.39Q54.69 22.39 53.21 23.47Q51.73 24.56 51.03 27.32L46.73 26.73Q47.31 23.97 48.66 22.28Q50 20.58 52.54 19.67Q55.08 18.75 58.42 18.75Q61.74 18.75 63.82 19.53Q65.89 20.31 66.87 21.50Q67.85 22.68 68.24 24.49Q68.46 25.61 68.46 28.54L68.46 34.40Q68.46 40.53 68.74 42.15Q69.02 43.77 69.85 45.26L65.26 45.26Q64.58 43.90 64.38 42.07M64.01 32.25Q61.62 33.23 56.84 33.91Q54.13 34.30 53.00 34.79Q51.88 35.28 51.27 36.22Q50.66 37.16 50.66 38.31Q50.66 40.06 51.99 41.24Q53.32 42.41 55.88 42.41Q58.42 42.41 60.40 41.30Q62.38 40.19 63.31 38.26Q64.01 36.77 64.01 33.86L64.01 32.25ZM75.29 14.53L75.29 9.47L79.69 9.47L79.69 14.53L75.29 14.53M75.29 45.26L75.29 19.34L79.69 19.34L79.69 45.26L75.29 45.26ZM86.28 45.26L86.28 9.47L90.67 9.47L90.67 45.26L86.28 45.26ZM120.14 45.26L120.14 13.70L108.35 13.70L108.35 9.47L136.72 9.47L136.72 13.70L124.88 13.70L124.88 45.26L120.14 45.26ZM143.04 45.26L135.11 19.34L139.65 19.34L143.77 34.30L145.31 39.87Q145.41 39.45 146.66 34.52L150.78 19.34L155.30 19.34L159.18 34.38L160.47 39.33L161.96 34.33L166.41 19.34L170.68 19.34L162.57 45.26L158.01 45.26L153.88 29.74L152.88 25.32L147.63 45.26L143.04 45.26ZM174.39 14.53L174.39 9.47L178.78 9.47L178.78 14.53L174.39 14.53M174.39 45.26L174.39 19.34L178.78 19.34L178.78 45.26L174.39 45.26ZM185.47 45.26L185.47 19.34L189.43 19.34L189.43 23.02Q192.29 18.75 197.68 18.75Q200.02 18.75 201.99 19.59Q203.96 20.43 204.93 21.80Q205.91 23.17 206.30 25.05Q206.54 26.27 206.54 29.32L206.54 45.26L202.15 45.26L202.15 29.49Q202.15 26.81 201.64 25.48Q201.12 24.15 199.82 23.35Q198.51 22.56 196.75 22.56Q193.95 22.56 191.91 24.34Q189.87 26.12 189.87 31.10L189.87 45.26L185.47 45.26Z"/></g><g fill="#000000" transform="translate(0, 60.595703125)"><path d=""/></g></g></svg>