<svg xmlns="http://www.w3.org/2000/svg" viewBox="0 2.6500000953674316 57.83000183105469 10.190000534057617" data-asc="0.9052734375"><g fill="#000000"><g fill="#000000" transform="translate(0, 0)"><path d="M3.30 12.67L3.30 3.83L0 3.83L0 2.65L7.94 2.65L7.94 3.83L4.63 3.83L4.63 12.67L3.30 12.67ZM8.61 12.67L8.61 5.41L9.72 5.41L9.72 6.51Q10.14 5.74 10.50 5.50Q10.86 5.25 11.29 5.25Q11.92 5.25 12.56 5.65L12.13 6.79Q11.68 6.52 11.23 6.52Q10.83 6.52 10.51 6.76Q10.19 7.01 10.05 7.44Q9.84 8.09 9.84 8.87L9.84 12.67L8.61 12.67ZM18.03 11.78Q17.34 12.36 16.71 12.60Q16.08 12.84 15.35 12.84Q14.16 12.84 13.51 12.25Q12.87 11.67 12.87 10.76Q12.87 10.23 13.11 9.79Q13.36 9.34 13.75 9.08Q14.14 8.81 14.64 8.67Q15.00 8.58 15.73 8.49Q17.22 8.31 17.92 8.07Q17.93 7.81 17.93 7.75Q17.93 6.99 17.58 6.69Q17.11 6.27 16.18 6.27Q15.31 6.27 14.90 6.57Q14.49 6.88 14.29 7.65L13.08 7.49Q13.25 6.71 13.62 6.24Q14 5.76 14.71 5.51Q15.42 5.25 16.36 5.25Q17.29 5.25 17.87 5.47Q18.45 5.69 18.72 6.02Q19.00 6.35 19.11 6.86Q19.17 7.17 19.17 7.99L19.17 9.63Q19.17 11.35 19.25 11.80Q19.33 12.26 19.56 12.67L18.27 12.67Q18.08 12.29 18.03 11.78M17.92 9.03Q17.25 9.30 15.91 9.50Q15.16 9.60 14.84 9.74Q14.53 9.88 14.36 10.14Q14.18 10.40 14.18 10.73Q14.18 11.22 14.56 11.55Q14.93 11.87 15.65 11.87Q16.36 11.87 16.91 11.56Q17.47 11.25 17.73 10.71Q17.92 10.29 17.92 9.48L17.92 9.03ZM21.08 4.07L21.08 2.65L22.31 2.65L22.31 4.07L21.08 4.07M21.08 12.67L21.08 5.41L22.31 5.41L22.31 12.67L21.08 12.67ZM24.16 12.67L24.16 2.65L25.39 2.65L25.39 12.67L24.16 12.67ZM33.64 12.67L33.64 3.83L30.34 3.83L30.34 2.65L38.28 2.65L38.28 3.83L34.97 3.83L34.97 12.67L33.64 12.67ZM40.05 12.67L37.83 5.41L39.10 5.41L40.26 9.60L40.69 11.16Q40.71 11.05 41.06 9.67L42.22 5.41L43.48 5.41L44.57 9.63L44.93 11.01L45.35 9.61L46.59 5.41L47.79 5.41L45.52 12.67L44.24 12.67L43.09 8.33L42.81 7.09L41.34 12.67L40.05 12.67ZM48.83 4.07L48.83 2.65L50.06 2.65L50.06 4.07L48.83 4.07M48.83 12.67L48.83 5.41L50.06 5.41L50.06 12.67L48.83 12.67ZM51.93 12.67L51.93 5.41L53.04 5.41L53.04 6.45Q53.84 5.25 55.35 5.25Q56.01 5.25 56.56 5.49Q57.11 5.72 57.38 6.10Q57.65 6.49 57.76 7.01Q57.83 7.36 57.83 8.21L57.83 12.67L56.60 12.67L56.60 8.26Q56.60 7.51 56.46 7.13Q56.31 6.76 55.95 6.54Q55.58 6.32 55.09 6.32Q54.30 6.32 53.73 6.82Q53.16 7.31 53.16 8.71L53.16 12.67L51.93 12.67Z"/></g><g fill="#000000" transform="translate(0, 16.966796875)"><path d=""/></g></g></svg>