<svg xmlns="http://www.w3.org/2000/svg" viewBox="0 0.9000000357627869 109.52000427246094 12.820000648498535" data-asc="0.755"><g fill="#000000"><g fill="#000000" transform="translate(0, 0)"><path d="M3.35 13.61Q3.33 13.43 3.35 13.25Q4.00 13.19 4.28 13.14Q4.55 13.09 4.62 12.88Q4.68 12.67 4.68 12.20L4.68 1.53L2.39 1.53Q1.67 1.53 1.31 1.69Q0.95 1.85 0.76 2.26Q0.56 2.66 0.34 3.44Q0.18 3.46 0.00 3.44Q0.09 2.81 0.16 2.15Q0.23 1.49 0.29 0.95Q1.13 0.99 2.32 1.00Q3.51 1.01 5.42 1.01Q7.36 1.01 8.53 1.00Q9.70 0.99 10.55 0.95Q10.58 1.48 10.66 2.14Q10.73 2.81 10.80 3.44Q10.60 3.46 10.44 3.44Q10.21 2.66 10.01 2.25Q9.81 1.84 9.46 1.68Q9.11 1.53 8.39 1.53L6.12 1.53L6.12 12.04Q6.12 12.58 6.18 12.82Q6.25 13.07 6.53 13.13Q6.80 13.19 7.45 13.25Q7.47 13.43 7.45 13.61Q7.18 13.61 6.80 13.60Q6.41 13.59 6.03 13.58Q5.65 13.57 5.40 13.57Q5.02 13.57 4.39 13.59Q3.76 13.61 3.35 13.61ZM16.02 7.72L15.57 7.69L15.57 12.04Q15.57 12.58 15.64 12.82Q15.71 13.07 15.99 13.13Q16.27 13.19 16.92 13.25Q16.94 13.43 16.92 13.61Q16.67 13.61 16.26 13.60Q15.86 13.59 15.47 13.58Q15.08 13.57 14.83 13.57Q14.60 13.57 14.21 13.58Q13.82 13.59 13.45 13.60Q13.07 13.61 12.82 13.61Q12.80 13.43 12.82 13.25Q13.45 13.19 13.73 13.14Q14.00 13.09 14.07 12.88Q14.13 12.67 14.13 12.20L14.13 2.52Q14.13 1.98 14.06 1.75Q13.99 1.51 13.71 1.44Q13.43 1.37 12.82 1.33Q12.80 1.15 12.82 0.97Q13.07 0.97 13.46 0.98Q13.84 0.99 14.23 1.00Q14.62 1.01 14.85 1.01Q15.08 1.01 15.55 1.00Q16.02 0.99 16.49 0.98Q16.96 0.97 17.17 0.97Q18.20 0.97 19.08 1.28Q19.96 1.58 20.51 2.26Q21.06 2.93 21.06 4.07Q21.06 5.40 20.27 6.23Q19.48 7.06 18.14 7.47L18.14 7.52Q18.40 7.65 18.62 7.84Q18.85 8.03 19.13 8.39Q19.35 8.66 19.76 9.25Q20.16 9.85 20.62 10.54Q21.08 11.23 21.46 11.83Q21.87 12.47 22.16 12.75Q22.45 13.03 22.79 13.11Q23.13 13.19 23.71 13.25Q23.72 13.43 23.71 13.61Q23.45 13.61 23.06 13.60Q22.66 13.59 22.29 13.58Q21.92 13.57 21.73 13.57Q21.51 13.57 21.31 13.58Q21.11 13.59 20.92 13.59Q20.72 13.25 20.34 12.64Q19.96 12.04 19.49 11.32Q19.03 10.60 18.57 9.91Q18.11 9.22 17.75 8.73Q17.44 8.30 17.21 8.10Q16.97 7.90 16.71 7.83Q16.45 7.76 16.02 7.72M15.57 7.15Q15.80 7.18 15.98 7.19Q16.16 7.20 16.33 7.20Q17.77 7.20 18.64 6.49Q19.51 5.78 19.51 4.27Q19.51 2.92 18.77 2.20Q18.04 1.49 16.60 1.49Q16.15 1.49 15.57 1.55L15.57 7.15ZM23.17 13.61Q23.15 13.43 23.17 13.25Q23.76 13.19 24.06 13.11Q24.35 13.03 24.53 12.73Q24.71 12.44 24.95 11.77L28.94 1.01Q29.09 0.95 29.30 0.93Q29.50 0.90 29.63 0.90L33.66 11.88Q33.89 12.51 34.05 12.78Q34.20 13.05 34.49 13.12Q34.78 13.19 35.39 13.25Q35.41 13.43 35.39 13.61Q34.92 13.61 34.34 13.59Q33.75 13.57 33.26 13.57Q32.76 13.57 32.32 13.59Q31.88 13.61 31.37 13.61Q31.36 13.43 31.37 13.25Q32.00 13.19 32.21 13.13Q32.42 13.07 32.42 12.82Q32.42 12.73 32.38 12.59Q32.35 12.46 32.27 12.26L31.03 8.78L26.75 8.78L25.58 12.06Q25.40 12.55 25.40 12.76Q25.40 13.05 25.67 13.12Q25.94 13.19 26.55 13.25Q26.57 13.43 26.55 13.61Q26.10 13.61 25.68 13.59Q25.25 13.57 24.80 13.57Q24.44 13.57 24.00 13.59Q23.56 13.61 23.17 13.61M26.95 8.23L30.82 8.23L28.87 2.81L26.95 8.23ZM39.71 2.38L39.71 12.04Q39.71 12.58 39.76 12.82Q39.82 13.07 40.09 13.13Q40.36 13.19 41.00 13.25Q41.02 13.43 41.00 13.61Q40.61 13.61 39.98 13.59Q39.35 13.57 38.99 13.57Q38.59 13.57 37.98 13.59Q37.37 13.61 36.95 13.61Q36.94 13.43 36.95 13.25Q37.58 13.19 37.86 13.14Q38.14 13.09 38.21 12.88Q38.27 12.67 38.27 12.20L38.27 2.54Q38.27 2.00 38.20 1.76Q38.12 1.53 37.85 1.45Q37.58 1.37 36.95 1.33Q36.94 1.15 36.95 0.97Q37.22 0.97 37.61 0.98Q38.00 0.99 38.38 1.00Q38.75 1.01 39.01 1.01Q39.26 1.01 39.63 1.00Q40.00 0.99 40.37 0.98Q40.75 0.97 41.00 0.97Q41.02 1.15 41.00 1.33Q40.37 1.39 40.10 1.44Q39.83 1.49 39.77 1.69Q39.71 1.89 39.71 2.38ZM44.37 13.61Q44.35 13.43 44.37 13.25Q44.98 13.19 45.25 13.13Q45.52 13.07 45.59 12.87Q45.65 12.67 45.65 12.20L45.65 2.54Q45.65 2.00 45.58 1.76Q45.50 1.53 45.24 1.45Q44.98 1.37 44.37 1.33Q44.35 1.15 44.37 0.97Q44.78 0.97 45.40 0.99Q46.01 1.01 46.37 1.01Q46.60 1.01 46.98 1.00Q47.36 0.99 47.75 0.98Q48.13 0.97 48.38 0.97Q48.40 1.15 48.38 1.33Q47.75 1.39 47.48 1.44Q47.21 1.49 47.15 1.69Q47.09 1.89 47.09 2.38L47.09 11.97Q47.09 12.42 47.09 12.68Q47.09 12.94 47.11 13.03L49.73 13.03Q50.36 13.03 50.76 12.94Q51.16 12.85 51.39 12.58Q51.59 12.37 51.81 11.94Q52.04 11.52 52.22 10.91Q52.38 10.89 52.54 10.91Q52.40 11.72 52.28 12.44Q52.16 13.16 52.09 13.59Q51.25 13.59 50.25 13.58Q49.25 13.57 48.25 13.57Q47.25 13.57 46.40 13.57Q46.15 13.57 45.77 13.58Q45.40 13.59 45.02 13.60Q44.64 13.61 44.37 13.61ZM61.65 13.61Q61.63 13.43 61.65 13.25Q62.30 13.19 62.58 13.14Q62.86 13.09 62.92 12.88Q62.98 12.67 62.98 12.20L62.98 1.53L60.70 1.53Q59.98 1.53 59.62 1.69Q59.26 1.85 59.06 2.26Q58.86 2.66 58.64 3.44Q58.48 3.46 58.30 3.44Q58.39 2.81 58.46 2.15Q58.54 1.49 58.59 0.95Q59.44 0.99 60.62 1.00Q61.81 1.01 63.72 1.01Q65.66 1.01 66.83 1.00Q68.00 0.99 68.85 0.95Q68.89 1.48 68.96 2.14Q69.03 2.81 69.10 3.44Q68.90 3.46 68.74 3.44Q68.51 2.66 68.31 2.25Q68.11 1.84 67.76 1.68Q67.41 1.53 66.69 1.53L64.42 1.53L64.42 12.04Q64.42 12.58 64.48 12.82Q64.55 13.07 64.83 13.13Q65.11 13.19 65.75 13.25Q65.77 13.43 65.75 13.61Q65.48 13.61 65.10 13.60Q64.71 13.59 64.33 13.58Q63.95 13.57 63.70 13.57Q63.32 13.57 62.69 13.59Q62.06 13.61 61.65 13.61ZM81.70 13.72L78.97 5.83L75.71 13.57Q75.56 13.61 75.35 13.63Q75.13 13.66 74.99 13.68L71.17 2.68Q70.96 2.05 70.80 1.78Q70.65 1.51 70.38 1.44Q70.11 1.37 69.55 1.33Q69.53 1.15 69.55 0.97Q69.98 0.97 70.52 0.99Q71.06 1.01 71.51 1.01Q71.91 1.01 72.50 0.99Q73.10 0.97 73.49 0.97Q73.51 1.15 73.49 1.33Q72.88 1.39 72.65 1.44Q72.41 1.49 72.41 1.75Q72.41 1.94 72.56 2.32L75.78 11.81L78.68 4.99L77.89 2.70Q77.67 2.05 77.53 1.78Q77.38 1.51 77.15 1.44Q76.91 1.37 76.39 1.33Q76.37 1.15 76.39 0.97Q76.84 0.97 77.36 0.99Q77.87 1.01 78.32 1.01Q78.73 1.01 79.34 0.99Q79.96 0.97 80.39 0.97Q80.41 1.15 80.39 1.33Q79.67 1.39 79.40 1.45Q79.13 1.51 79.13 1.76Q79.13 1.94 79.25 2.32L82.48 11.84L85.93 2.52Q86.02 2.27 86.09 2.10Q86.15 1.93 86.15 1.80Q86.15 1.55 85.89 1.47Q85.63 1.39 85.00 1.33Q84.98 1.15 85.00 0.97Q85.18 0.97 85.54 0.98Q85.90 0.99 86.26 1.00Q86.62 1.01 86.80 1.01Q87.21 1.01 87.61 0.99Q88.00 0.97 88.40 0.97Q88.42 1.15 88.40 1.33Q87.84 1.37 87.54 1.46Q87.25 1.55 87.05 1.85Q86.85 2.16 86.58 2.84L82.39 13.61Q82.26 13.64 82.04 13.67Q81.83 13.70 81.70 13.72ZM92.48 2.38L92.48 12.04Q92.48 12.58 92.54 12.82Q92.59 13.07 92.86 13.13Q93.13 13.19 93.78 13.25Q93.80 13.43 93.78 13.61Q93.38 13.61 92.75 13.59Q92.12 13.57 91.76 13.57Q91.37 13.57 90.76 13.59Q90.14 13.61 89.73 13.61Q89.71 13.43 89.73 13.25Q90.36 13.19 90.64 13.14Q90.92 13.09 90.98 12.88Q91.04 12.67 91.04 12.20L91.04 2.54Q91.04 2.00 90.97 1.76Q90.90 1.53 90.63 1.45Q90.36 1.37 89.73 1.33Q89.71 1.15 89.73 0.97Q90.00 0.97 90.39 0.98Q90.77 0.99 91.15 1.00Q91.53 1.01 91.78 1.01Q92.03 1.01 92.40 1.00Q92.77 0.99 93.15 0.98Q93.53 0.97 93.78 0.97Q93.80 1.15 93.78 1.33Q93.15 1.39 92.88 1.44Q92.61 1.49 92.55 1.69Q92.48 1.89 92.48 2.38ZM107.46 13.68L98.91 2.61L98.91 11.72Q98.91 12.22 98.94 12.48Q98.96 12.74 99.09 12.89Q99.23 13.01 99.50 13.11Q99.77 13.21 100.28 13.25Q100.30 13.43 100.28 13.61Q99.88 13.61 99.41 13.59Q98.93 13.57 98.60 13.57Q98.28 13.57 97.80 13.59Q97.33 13.61 96.95 13.61Q96.93 13.43 96.95 13.25Q97.58 13.18 97.85 13.09Q98.12 13.00 98.18 12.73Q98.24 12.47 98.24 11.88L98.24 2.93Q98.24 2.23 98.17 1.92Q98.10 1.60 97.80 1.49Q97.51 1.39 96.84 1.31Q96.82 1.15 96.84 0.97Q97.25 0.97 97.71 0.99Q98.17 1.01 98.62 1.01Q98.68 1.01 98.97 1.01Q99.27 1.01 99.50 0.99L107.53 11.41L107.53 2.88Q107.53 2.39 107.51 2.11Q107.50 1.84 107.35 1.71Q107.08 1.40 106.02 1.33Q106.00 1.15 106.02 0.99Q106.40 0.99 106.96 1.00Q107.51 1.01 107.84 1.01Q108.16 1.01 108.64 1.00Q109.12 0.99 109.51 0.99Q109.53 1.15 109.51 1.33Q108.88 1.40 108.60 1.50Q108.32 1.60 108.26 1.86Q108.20 2.12 108.20 2.72L108.20 13.61Q108.07 13.64 107.85 13.66Q107.62 13.68 107.46 13.68Z"/></g><g fill="#000000" transform="translate(0, 22.41)"><path d=""/></g></g></svg>