<?xml version="1.0" standalone="no"?>
<!DOCTYPE svg PUBLIC "-//W3C//DTD SVG 20010904//EN"
 "http://www.w3.org/TR/2001/REC-SVG-20010904/DTD/svg10.dtd">
<svg version="1.0" xmlns="http://www.w3.org/2000/svg"
 width="345.000000pt" height="382.000000pt" viewBox="0 0 345.000000 382.000000"
 preserveAspectRatio="xMidYMid meet">

<g transform="translate(0.000000,382.000000) scale(0.100000,-0.100000)"
fill="#000000" stroke="none">
<path d="M960 3800 c-1 -3 -14 -57 -30 -120 -54 -211 -155 -372 -279 -445 -57
-34 -64 -56 -25 -82 23 -14 32 -15 73 -4 25 6 62 25 81 40 54 43 115 140 145
231 15 44 28 80 29 78 0 -2 0 -710 -2 -1574 l-2 -1572 -93 -7 c-150 -10 -409
-43 -618 -77 l-197 -32 -5 -55 c-3 -30 -5 -56 -4 -57 1 0 117 14 257 31 585
74 818 89 1430 89 455 1 660 -7 965 -35 215 -20 491 -50 580 -65 50 -7 102
-14 118 -14 26 0 27 2 27 55 0 30 -4 55 -10 55 -5 0 -87 13 -182 29 -138 24
-512 71 -558 71 -6 0 -10 166 -10 458 l1 457 27 -35 c81 -104 156 -167 267
-222 68 -34 153 -58 209 -58 37 0 48 4 62 25 25 38 11 62 -45 74 -139 30 -278
113 -370 222 -58 70 -113 167 -125 226 -7 30 -1 26 71 -48 128 -132 268 -213
389 -226 43 -5 55 -2 73 16 23 23 28 59 9 66 -7 2 -44 13 -83 25 -169 51 -337
195 -414 351 -22 46 -44 97 -47 113 -6 26 2 20 61 -43 136 -144 366 -264 452
-237 23 7 45 49 37 71 -3 8 -25 20 -48 25 -221 57 -431 245 -506 455 -10 27
-4 23 52 -31 35 -33 79 -72 98 -86 62 -45 179 -98 251 -115 63 -14 71 -14 93
1 43 28 42 86 -1 86 -8 0 -48 11 -90 25 -186 63 -358 229 -401 388 -10 37 -9
37 72 -46 102 -104 202 -159 300 -165 52 -3 64 -1 79 16 10 11 17 31 15 43 -2
19 -14 25 -68 39 -92 22 -184 75 -255 146 -66 66 -129 173 -140 239 l-7 40 33
-46 c71 -95 181 -175 281 -204 67 -19 89 -15 108 21 19 35 4 55 -52 70 -120
30 -259 149 -322 275 -20 39 -36 78 -36 85 0 8 27 -13 60 -46 76 -76 151 -120
206 -120 47 0 67 17 62 52 -2 17 -19 31 -63 52 -76 38 -189 150 -231 231 -32
61 -57 132 -69 195 l-7 35 33 -32 c42 -40 96 -63 147 -63 79 0 85 51 11 95
-126 74 -215 219 -271 436 -17 68 -33 126 -35 128 -7 9 -14 -10 -42 -123 -39
-155 -95 -268 -172 -350 -33 -36 -80 -76 -105 -91 -49 -29 -48 -28 -33 -56 26
-49 100 -41 168 18 53 45 120 153 147 238 l23 70 1 -1572 c0 -864 -4 -1574 -8
-1577 -4 -2 -73 0 -152 7 -170 12 -994 16 -1157 4 l-113 -8 1 458 c0 434 1
457 17 433 50 -72 97 -122 159 -169 112 -85 249 -141 344 -141 51 0 69 13 72
55 2 25 -2 28 -82 51 -204 60 -345 171 -426 338 -69 142 -66 146 32 48 99
-100 208 -170 314 -203 89 -27 138 -23 159 13 20 37 5 61 -46 70 -94 16 -230
88 -318 169 -72 65 -148 180 -176 264 -12 36 -20 68 -18 70 2 3 21 -18 41 -45
75 -100 255 -220 383 -256 71 -19 107 -14 129 20 25 38 10 53 -78 80 -45 14
-111 42 -146 63 -138 82 -291 256 -326 373 -6 20 3 15 51 -31 113 -106 249
-180 372 -201 78 -13 95 -7 113 40 13 33 -2 49 -54 57 -73 12 -192 64 -264
114 -82 58 -141 126 -183 209 -46 93 -38 103 28 37 99 -100 201 -156 310 -171
46 -6 53 -4 76 19 35 35 34 65 -1 73 -61 13 -156 47 -198 71 -102 57 -192 163
-234 276 -31 84 -26 95 17 40 87 -109 217 -196 316 -209 38 -6 45 -3 65 22 12
15 20 34 19 42 -2 8 -37 26 -78 41 -41 15 -93 38 -115 53 -47 30 -124 107
-161 162 -24 35 -74 145 -74 163 0 4 26 -20 58 -55 107 -116 238 -168 277
-108 21 32 11 51 -40 70 -60 23 -163 104 -207 163 -21 27 -51 78 -67 114 -28
60 -62 170 -55 178 1 1 18 -8 36 -22 82 -61 163 -76 192 -36 20 29 12 44 -38
73 -131 76 -234 248 -283 471 -14 61 -31 110 -33 95z"/>
<path d="M2396 3115 c-51 -122 -190 -277 -292 -326 -53 -25 -64 -34 -64 -54 0
-15 10 -31 25 -41 22 -15 28 -15 76 1 41 14 70 35 129 94 99 98 139 175 147
285 3 42 3 76 0 76 -4 0 -13 -16 -21 -35z"/>
<path d="M826 3082 c-63 -128 -179 -257 -271 -302 -53 -26 -59 -33 -51 -65 8
-32 46 -41 98 -26 55 17 177 139 216 217 42 83 67 214 44 228 -5 3 -21 -21
-36 -52z"/>
<path d="M816 2780 c-29 -54 -64 -99 -125 -160 -83 -82 -124 -108 -238 -150
-38 -14 -44 -47 -15 -73 64 -58 259 50 353 196 50 77 71 143 67 209 l-3 53
-39 -75z"/>
<path d="M2364 2779 c-66 -126 -190 -236 -321 -285 -37 -14 -71 -30 -74 -36
-11 -18 3 -48 29 -62 81 -42 301 104 375 249 32 63 53 166 39 190 -8 15 -16 6
-48 -56z"/>
<path d="M822 2518 c-65 -134 -231 -266 -394 -313 -49 -14 -58 -20 -58 -39 0
-41 32 -59 97 -54 148 11 336 168 379 315 8 28 14 76 12 105 l-3 53 -33 -67z"/>
<path d="M2376 2525 c-30 -66 -145 -184 -228 -233 -31 -18 -84 -42 -119 -54
-124 -39 -128 -44 -85 -95 24 -27 24 -27 82 -15 137 28 292 140 349 252 21 40
29 75 33 128 2 39 2 72 -1 72 -3 0 -17 -25 -31 -55z"/>
<path d="M821 2245 c-80 -150 -275 -284 -488 -336 -36 -8 -43 -14 -43 -34 0
-14 10 -35 21 -46 17 -17 29 -20 63 -16 177 25 381 160 451 297 28 55 45 162
28 173 -5 3 -19 -14 -32 -38z"/>
<path d="M2367 2238 c-39 -58 -118 -136 -192 -191 -65 -47 -150 -86 -243 -111
-79 -21 -87 -25 -90 -49 -4 -31 28 -67 59 -67 41 0 145 32 216 68 178 88 300
240 291 364 l-3 43 -38 -57z"/>
<path d="M2379 1987 c-7 -17 -31 -51 -52 -74 -41 -45 -46 -77 -14 -97 37 -24
87 50 95 139 5 62 -10 78 -29 32z"/>
<path d="M821 1964 c-14 -25 -37 -54 -53 -66 -33 -23 -36 -63 -5 -82 40 -25
89 45 89 129 1 31 -1 57 -3 60 -3 2 -15 -16 -28 -41z"/>
<path d="M599 1747 c-37 -45 -128 -97 -234 -132 -100 -34 -116 -54 -75 -95 18
-18 29 -21 61 -16 100 16 244 94 294 161 31 39 37 91 14 106 -23 14 -33 11
-60 -24z"/>
<path d="M2129 1737 c-57 -53 -147 -102 -224 -121 -87 -23 -105 -46 -65 -86
26 -26 74 -26 147 1 76 29 149 76 194 126 44 48 54 75 39 103 -16 30 -40 24
-91 -23z"/>
<path d="M2362 1687 c-94 -167 -285 -314 -474 -365 -52 -14 -64 -21 -66 -40
-5 -36 25 -62 70 -62 144 0 397 170 477 320 43 80 61 200 31 200 -5 0 -21 -24
-38 -53z"/>
<path d="M814 1698 c-29 -56 -100 -143 -174 -211 -76 -70 -230 -155 -322 -178
-51 -12 -67 -34 -49 -68 15 -28 37 -32 105 -21 115 19 262 105 361 211 72 78
108 153 113 237 5 70 -8 81 -34 30z"/>
<path d="M815 1417 c-66 -141 -268 -305 -439 -357 -104 -32 -116 -38 -116 -58
0 -9 7 -28 16 -40 21 -31 73 -29 178 8 99 35 140 57 216 117 116 90 171 186
178 306 3 42 2 77 -1 77 -4 0 -18 -24 -32 -53z"/>
<path d="M2373 1418 c-71 -147 -285 -312 -462 -356 -81 -21 -96 -31 -86 -61
10 -34 34 -51 70 -51 51 0 182 45 255 87 82 49 190 154 219 216 24 49 46 186
32 200 -4 4 -16 -12 -28 -35z"/>
<path d="M2334 1055 c-28 -30 -69 -64 -90 -77 l-39 -23 84 -3 c46 -2 85 -1 87
1 6 5 18 157 13 156 -2 0 -27 -25 -55 -54z"/>
<path d="M789 1061 c-14 -21 -47 -51 -73 -68 -53 -35 -46 -43 40 -43 62 0 67
9 62 97 l-3 50 -26 -36z"/>
<path d="M1180 985 c0 -22 4 -25 35 -25 19 0 35 2 35 4 0 2 -16 13 -35 25
l-35 20 0 -24z"/>
<path d="M2740 979 c0 -25 4 -29 28 -29 49 0 53 14 11 37 l-39 21 0 -29z"/>
</g>
</svg>
